<?xml version="1.0" encoding="UTF-8"?>
<svg id="Layer_1" data-name="Layer 1" xmlns="http://www.w3.org/2000/svg" width="128" height="128" viewBox="0 0 128 128">
  <defs>
    <style>
      .cls-1 {
        opacity: .75;
      }

      .cls-2 {
        opacity: .5;
      }

      .cls-3 {
        opacity: .25;
      }

      .cls-4 {
        opacity: .15;
      }

      .cls-5 {
        fill: aqua;
      }
    </style>
  </defs>
  <g>
    <g class="cls-2">
      <polygon class="cls-5" points="96.82 113.63 64.82 89.86 64.82 66.1 96.82 89.86 96.82 113.63"/>
    </g>
    <polygon class="cls-5" points="32.82 113.63 64.82 89.86 64.82 66.1 32.82 89.86 32.82 113.63"/>
    <g class="cls-4">
      <polygon class="cls-5" points="32.82 113.63 96.82 113.63 64.82 89.86 32.82 113.63"/>
    </g>
    <g class="cls-3">
      <rect class="cls-5" x="32.82" y="113.63" width="64" height="14.26"/>
    </g>
    <g class="cls-3">
      <rect class="cls-5" x=".82" y="121.88" width="128" height="6"/>
    </g>
  </g>
  <g class="cls-1">
    <path class="cls-5" d="M64,18.31h0v43H21c0-23.73,19.27-43,43-43Z"/>
  </g>
  <g class="cls-3">
    <path class="cls-5" d="M64,18.31h43v43h0c-23.73,0-43-19.27-43-43h0Z" transform="translate(171 79.63) rotate(-180)"/>
  </g>
  <g>
    <rect class="cls-5" x="35.07" y="6.7" width="1.36" height="14.81" transform="translate(-2.46 18.2) rotate(-27.65)"/>
    <rect class="cls-5" x="39.35" y="-.91" width="1.36" height="19.5" transform="translate(.47 19.58) rotate(-27.64)"/>
    <rect class="cls-5" x="49.91" y="7.1" width="1.36" height="7.81" transform="translate(.68 24.76) rotate(-27.68)"/>
    <rect class="cls-5" x="64.2" y="7.2" width="1.36" height="6.1" transform="translate(2.67 31.33) rotate(-27.7)"/>
    <rect class="cls-5" x="54.7" y="-.64" width="1.36" height="14.69" transform="translate(3.21 26.47) rotate(-27.66)"/>
    <rect class="cls-5" x="69.59" y="-.69" width="1.36" height="15.61" transform="translate(4.72 33.41) rotate(-27.64)"/>
    <rect class="cls-5" x="82.17" y="6.82" width="1.36" height="12.65" transform="translate(3.35 39.93) rotate(-27.64)"/>
    <rect class="cls-5" x="87.62" y="-1.08" width="1.36" height="22.37" transform="translate(5.39 42.13) rotate(-27.65)"/>
  </g>
  <circle class="cls-5" cx="64.82" cy="112.13" r="6.18"/>
  <path class="cls-5" d="M58.64,127.68v-1.96c0-3.41,2.77-6.18,6.18-6.18s6.18,2.77,6.18,6.18v1.96h-12.36Z"/>
</svg>