<?xml version="1.0" encoding="UTF-8"?>
<svg id="Layer_1" data-name="Layer 1" xmlns="http://www.w3.org/2000/svg" width="128" height="128" viewBox="0 0 128 128">
  <defs>
    <style>
      .cls-1, .cls-2 {
        fill: aqua;
      }

      .cls-2 {
        opacity: .25;
      }
    </style>
  </defs>
  <polygon class="cls-1" points="0 64 32 32 32 0 0 32 0 64"/>
  <polygon class="cls-1" points="32 64 64 32 64 0 32 32 32 64"/>
  <polygon class="cls-1" points="64 64 96 32 96 0 64 32 64 64"/>
  <polygon class="cls-1" points="96 64 128 32 128 0 96 32 96 64"/>
  <rect class="cls-2" x="0" y="32" width="128" height="96"/>
  <g>
    <g>
      <circle class="cls-1" cx="15.53" cy="118.16" r="3.91"/>
      <path class="cls-1" d="M11.62,128v-1.24c0-2.16,1.75-3.91,3.91-3.91s3.91,1.75,3.91,3.91v1.24h-7.82Z"/>
    </g>
    <g>
      <circle class="cls-1" cx="79.53" cy="118.16" r="3.91"/>
      <path class="cls-1" d="M75.62,128v-1.24c0-2.16,1.75-3.91,3.91-3.91s3.91,1.75,3.91,3.91v1.24h-7.82Z"/>
    </g>
    <g>
      <circle class="cls-1" cx="47.53" cy="118.16" r="3.91"/>
      <path class="cls-1" d="M43.62,128v-1.24c0-2.16,1.75-3.91,3.91-3.91s3.91,1.75,3.91,3.91v1.24h-7.82Z"/>
    </g>
    <g>
      <circle class="cls-1" cx="111.53" cy="118.16" r="3.91"/>
      <path class="cls-1" d="M107.62,128v-1.24c0-2.16,1.75-3.91,3.91-3.91s3.91,1.75,3.91,3.91v1.24h-7.82Z"/>
    </g>
  </g>
  <g>
    <g>
      <circle class="cls-1" cx="32" cy="95.16" r="3.91"/>
      <path class="cls-1" d="M28.09,105v-1.24c0-2.16,1.75-3.91,3.91-3.91s3.91,1.75,3.91,3.91v1.24h-7.82Z"/>
    </g>
    <g>
      <circle class="cls-1" cx="96" cy="95.16" r="3.91"/>
      <path class="cls-1" d="M92.09,105v-1.24c0-2.16,1.75-3.91,3.91-3.91s3.91,1.75,3.91,3.91v1.24h-7.82Z"/>
    </g>
    <g>
      <circle class="cls-1" cx="64" cy="95.16" r="3.91"/>
      <path class="cls-1" d="M60.09,105v-1.24c0-2.16,1.75-3.91,3.91-3.91s3.91,1.75,3.91,3.91v1.24h-7.82Z"/>
    </g>
  </g>
  <g>
    <g>
      <circle class="cls-1" cx="15.53" cy="72.15" r="3.91"/>
      <path class="cls-1" d="M11.62,81.99v-1.24c0-2.16,1.75-3.91,3.91-3.91s3.91,1.75,3.91,3.91v1.24h-7.82Z"/>
    </g>
    <g>
      <circle class="cls-1" cx="79.53" cy="72.15" r="3.91"/>
      <path class="cls-1" d="M75.62,81.99v-1.24c0-2.16,1.75-3.91,3.91-3.91s3.91,1.75,3.91,3.91v1.24h-7.82Z"/>
    </g>
    <g>
      <circle class="cls-1" cx="47.53" cy="72.15" r="3.91"/>
      <path class="cls-1" d="M43.62,81.99v-1.24c0-2.16,1.75-3.91,3.91-3.91s3.91,1.75,3.91,3.91v1.24h-7.82Z"/>
    </g>
    <g>
      <circle class="cls-1" cx="111.53" cy="72.15" r="3.91"/>
      <path class="cls-1" d="M107.62,81.99v-1.24c0-2.16,1.75-3.91,3.91-3.91s3.91,1.75,3.91,3.91v1.24h-7.82Z"/>
    </g>
  </g>
</svg>