<?xml version="1.0" encoding="UTF-8"?>
<svg id="Layer_1" data-name="Layer 1" xmlns="http://www.w3.org/2000/svg" width="128" height="128" viewBox="0 0 128 128">
  <defs>
    <style>
      .cls-1 {
        fill: #fff;
      }

      .cls-2 {
        opacity: .5;
      }
    </style>
  </defs>
  <g>
    <g>
      <g class="cls-2">
        <polygon class="cls-1" points="64 27.35 64 0 72.53 8.53 72.53 27.35 64 27.35"/>
      </g>
      <polygon class="cls-1" points="55.47 27.35 55.47 8.53 64 0 64 27.35 55.47 27.35"/>
    </g>
    <g>
      <g class="cls-2">
        <polygon class="cls-1" points="64 100.65 64 128 55.47 119.47 55.47 100.65 64 100.65"/>
      </g>
      <polygon class="cls-1" points="72.53 100.65 72.53 119.47 64 128 64 100.65 72.53 100.65"/>
    </g>
  </g>
  <g>
    <g>
      <g class="cls-2">
        <polygon class="cls-1" points="89.92 38.08 109.25 18.75 109.25 30.81 95.95 44.12 89.92 38.08"/>
      </g>
      <polygon class="cls-1" points="83.88 32.05 97.19 18.75 109.25 18.75 89.92 38.08 83.88 32.05"/>
    </g>
    <g>
      <g class="cls-2">
        <polygon class="cls-1" points="38.08 89.92 18.75 109.25 18.75 97.19 32.05 83.88 38.08 89.92"/>
      </g>
      <polygon class="cls-1" points="44.12 95.95 30.81 109.25 18.75 109.25 38.08 89.92 44.12 95.95"/>
    </g>
  </g>
  <g>
    <g>
      <g class="cls-2">
        <polygon class="cls-1" points="100.65 64 128 64 119.47 72.53 100.65 72.53 100.65 64"/>
      </g>
      <polygon class="cls-1" points="100.65 55.47 119.47 55.47 128 64 100.65 64 100.65 55.47"/>
    </g>
    <g>
      <g class="cls-2">
        <polygon class="cls-1" points="27.35 64 0 64 8.53 55.47 27.35 55.47 27.35 64"/>
      </g>
      <polygon class="cls-1" points="27.35 72.53 8.53 72.53 0 64 27.35 64 27.35 72.53"/>
    </g>
  </g>
  <g>
    <g>
      <g class="cls-2">
        <polygon class="cls-1" points="89.92 89.92 109.25 109.25 97.19 109.25 83.88 95.95 89.92 89.92"/>
      </g>
      <polygon class="cls-1" points="95.95 83.88 109.25 97.19 109.25 109.25 89.92 89.92 95.95 83.88"/>
    </g>
    <g>
      <g class="cls-2">
        <polygon class="cls-1" points="38.08 38.08 18.75 18.75 30.81 18.75 44.12 32.05 38.08 38.08"/>
      </g>
      <polygon class="cls-1" points="32.05 44.12 18.75 30.81 18.75 18.75 38.08 38.08 32.05 44.12"/>
    </g>
  </g>
  <path class="cls-1" d="M64,67.41c-7.06,0-12.8-5.74-12.8-12.8s5.74-12.8,12.8-12.8,12.8,5.74,12.8,12.8-5.74,12.8-12.8,12.8ZM64,45.23c-5.17,0-9.38,4.21-9.38,9.38s4.21,9.38,9.38,9.38,9.38-4.21,9.38-9.38-4.21-9.38-9.38-9.38Z"/>
  <path class="cls-1" d="M82.77,84.47h-3.41v-1.71c0-8.47-6.89-15.36-15.36-15.36s-15.36,6.89-15.36,15.36v1.71h-3.41v-1.71c0-10.35,8.42-18.77,18.77-18.77s18.77,8.42,18.77,18.77v1.71Z"/>
</svg>